<?xml version="1.0" encoding="UTF-8"?>
<svg xmlns="http://www.w3.org/2000/svg" xmlns:xlink="http://www.w3.org/1999/xlink" width="100px" height="100px" viewBox="0 0 100 100" version="1.1">
<g id="surface1">
<path style=" stroke:none;fill-rule:evenodd;fill:rgb(3.529412%,14.117647%,29.411765%);fill-opacity:1;" d="M 66.765625 18.765625 C 74.386719 18.234375 80.277344 22.6875 84.199219 27.824219 C 88.148438 33 90.871094 39.765625 92.363281 46.414062 C 93.855469 53.0625 94.253906 60.210938 93.015625 66.300781 C 91.828125 72.152344 88.660156 78.84375 81.488281 80.988281 C 74.738281 83.003906 68.824219 80.070312 64.605469 76.519531 C 60.371094 72.960938 56.789062 67.96875 53.972656 63.285156 C 52.605469 61.015625 51.363281 58.722656 50.265625 56.554688 C 49.167969 58.722656 47.925781 61.015625 46.558594 63.285156 C 43.742188 67.96875 40.15625 72.960938 35.925781 76.519531 C 31.707031 80.070312 25.789062 83.003906 19.042969 80.988281 C 11.871094 78.84375 8.703125 72.152344 7.515625 66.300781 C 6.277344 60.210938 6.675781 53.0625 8.167969 46.414062 C 9.65625 39.765625 12.378906 33 16.332031 27.824219 C 20.25 22.6875 26.144531 18.234375 33.765625 18.765625 C 40.917969 19.261719 46.113281 24.109375 49.351562 28.214844 L 50.265625 29.421875 L 51.179688 28.214844 C 54.414062 24.109375 59.613281 19.261719 66.765625 18.765625 Z M 32.902344 31.234375 C 31.148438 31.113281 28.863281 32.007812 26.269531 35.40625 C 23.707031 38.761719 21.582031 43.714844 20.363281 49.148438 C 19.144531 54.589844 18.96875 59.894531 19.765625 63.8125 C 20.449219 67.195312 21.550781 68.40625 22.230469 68.828125 L 22.511719 68.972656 L 22.625 69.011719 C 23.59375 69.300781 25.183594 69.222656 27.878906 66.953125 C 30.5625 64.699219 33.304688 61.066406 35.851562 56.839844 C 36.984375 54.953125 38.035156 53.023438 38.980469 51.164062 L 40.066406 48.976562 L 41.039062 46.90625 L 41.894531 44.996094 L 42.625 43.300781 L 43.222656 41.859375 C 42.570312 40.554688 41.632812 38.867188 40.460938 37.195312 C 37.777344 33.378906 35.085938 31.386719 32.902344 31.234375 Z M 67.628906 31.234375 C 65.445312 31.386719 62.753906 33.378906 60.070312 37.195312 C 58.894531 38.867188 57.960938 40.554688 57.308594 41.859375 L 58.253906 44.121094 L 59.046875 45.929688 C 59.191406 46.246094 59.339844 46.570312 59.492188 46.90625 L 60.464844 48.976562 L 61.546875 51.164062 C 62.496094 53.023438 63.546875 54.953125 64.679688 56.839844 C 67.226562 61.066406 69.96875 64.699219 72.652344 66.953125 C 75.15625 69.058594 76.703125 69.277344 77.6875 69.066406 L 77.90625 69.011719 C 78.449219 68.847656 79.921875 67.976562 80.765625 63.8125 C 81.5625 59.894531 81.386719 54.589844 80.167969 49.148438 C 78.949219 43.714844 76.824219 38.761719 74.261719 35.40625 C 71.667969 32.007812 69.382812 31.113281 67.628906 31.234375 Z M 67.628906 31.234375 "/>
</g>
</svg>
