<?xml version="1.0" standalone="no"?>
<!DOCTYPE svg PUBLIC "-//W3C//DTD SVG 20010904//EN"
 "http://www.w3.org/TR/2001/REC-SVG-20010904/DTD/svg10.dtd">
<svg version="1.0" xmlns="http://www.w3.org/2000/svg"
 width="64.000000pt" height="64.000000pt" viewBox="0 0 64.000000 64.000000"
 preserveAspectRatio="xMidYMid meet">

<g transform="translate(0.000000,64.000000) scale(0.100000,-0.100000)"
fill="#000000" stroke="none">
<path d="M230 343 l0 -137 -28 27 c-15 15 -31 27 -35 27 -18 0 -3 -30 33 -65
l40 -39 40 39 c36 35 51 65 33 65 -4 0 -20 -12 -35 -27 l-28 -27 0 137 c0 85
-4 137 -10 137 -6 0 -10 -52 -10 -137z"/>
<path d="M357 442 c-54 -56 -50 -88 5 -35 l28 27 0 -137 c0 -85 4 -137 10
-137 6 0 10 52 10 137 l0 137 28 -27 c31 -30 42 -33 42 -14 0 12 -70 87 -81
87 -3 0 -22 -17 -42 -38z"/>
</g>
</svg>
